<svg xmlns="http://www.w3.org/2000/svg" width="27" height="25" fill="none" viewBox="0 0 27 25"><path fill="#fff" d="M21.6884 0.979241C22.2333 0.614253 22.8879 0.449627 23.5406 0.513451C24.1933 0.577275 24.8037 0.865594 25.2675 1.32922C25.7314 1.79284 26.02 2.40304 26.0841 3.05572C26.1482 3.70839 25.9839 4.3631 25.6192 4.90813L22.1037 10.1786C20.4943 12.5928 18.2093 14.4793 15.534 15.6023C15.1668 14.5533 14.568 13.6004 13.7821 12.8145C12.9962 12.0286 12.0433 11.4298 10.9943 11.0626C12.1178 8.38708 14.0049 6.102 16.4198 4.49292L21.6884 0.979241ZM8.56199 13.421C7.33841 13.421 6.16493 13.9071 5.29973 14.7723C4.43452 15.6375 3.94845 16.811 3.94845 18.0346C3.94868 18.1879 3.91069 18.3389 3.83793 18.4738C3.76517 18.6088 3.65992 18.7235 3.5317 18.8076C3.40348 18.8916 3.25634 18.9424 3.10356 18.9554C2.95078 18.9683 2.79718 18.943 2.65666 18.8816C2.39961 18.7687 2.11431 18.7367 1.83862 18.7897C1.56294 18.8428 1.3099 18.9784 1.11309 19.1786C0.916288 19.3788 0.785019 19.6342 0.73671 19.9107C0.688401 20.1873 0.725336 20.472 0.842613 20.727C1.45593 22.0683 2.50977 23.1592 3.82899 23.8186C5.14821 24.4779 6.65335 24.6659 8.09422 24.3514C9.53509 24.0368 10.8249 23.2386 11.7493 22.0894C12.6737 20.9403 13.177 19.5094 13.1755 18.0346C13.1755 16.811 12.6895 15.6375 11.8243 14.7723C10.9591 13.9071 9.78558 13.421 8.56199 13.421Z"/></svg>