<svg width="52" height="52" viewBox="0 0 52 52" fill="none" xmlns="http://www.w3.org/2000/svg">
<path d="M0.336645 20.5416C-0.830792 24.1183 1.13552 27.9598 4.72852 29.122L12.346 31.5858C16.4841 33.3871 19.1632 37.4974 19.1656 42.2803V45.1906C19.1656 48.9513 22.2282 52 26.0061 52C29.784 52 32.8466 48.9513 32.8466 45.1906V41.2945C32.8345 28.497 20.7476 19.6589 14.5129 17.967L8.95618 16.1697C5.36318 15.0076 1.50408 16.965 0.336645 20.5416Z" fill="#2B9BEB"/>
<path d="M51.6634 20.5416C52.8308 24.1183 50.8645 27.9598 47.2715 29.122L39.654 31.5858C35.5159 33.3871 32.8368 37.4974 32.8344 42.2803V45.1906C32.8344 48.9513 29.7718 52 25.9939 52C22.216 52 19.1534 48.9513 19.1534 45.1906V41.2945C19.1655 28.497 31.2524 19.6589 37.4871 17.967L43.0438 16.1697C46.6368 15.0076 50.4959 16.965 51.6634 20.5416Z" fill="#A5DBFF"/>
<path d="M0.336645 20.5416C-0.830792 24.1183 1.13552 27.9598 4.72852 29.122L12.346 31.5858C16.4841 33.3871 19.1632 37.4974 19.1656 42.2803V45.1906C19.1656 48.9513 22.2282 52 26.0061 52C29.784 52 32.8466 48.9513 32.8466 45.1906V41.2945C32.8345 28.497 20.7476 19.6589 14.5129 17.967L8.95618 16.1697C5.36318 15.0076 1.50408 16.965 0.336645 20.5416Z" fill="#F7DE5F"/>
<path d="M32.834 42.2805V45.1907C32.834 48.9515 29.7714 52.0001 25.9935 52.0001C22.2156 52.0001 19.153 48.9515 19.153 45.1907V41.2947C19.159 34.8919 22.1875 29.4802 25.9935 25.4587C29.7262 29.5968 32.834 34.0601 32.834 42.2805Z" fill="#50B1F6"/>
<circle cx="25.9025" cy="8.79699" r="8.79699" fill="#2B9BEB"/>
</svg>
