<svg width="25" height="25" viewBox="0 0 25 25" fill="none" xmlns="http://www.w3.org/2000/svg">
<path fill-rule="evenodd" clip-rule="evenodd" d="M4.82395 6.5C5.13252 6.87257 5.46737 7.22 5.82852 7.54229C6.0908 6.49657 6.43537 5.528 6.85023 4.66572C6.08929 5.17548 5.4067 5.7934 4.82395 6.5ZM12.0977 0.500004C10.5214 0.498652 8.96037 0.808117 7.50386 1.41069C6.04734 2.01327 4.72393 2.89713 3.60936 4.01171C2.49479 5.12628 1.61093 6.44968 1.00835 7.9062C0.405774 9.36272 0.0963079 10.9238 0.0976607 12.5C0.0976607 12.7583 0.105661 13.0137 0.121661 13.2663C0.271132 15.6022 1.10051 17.8434 2.50766 19.714C3.91481 21.5845 5.83829 23.0026 8.04125 23.7938C10.2442 24.5849 12.6304 24.7145 14.9061 24.1666C17.1818 23.6187 19.2476 22.4172 20.849 20.7101C22.4505 19.0029 23.5177 16.8647 23.9192 14.5587C24.3208 12.2527 24.0392 9.8796 23.1091 7.73162C22.179 5.58365 20.641 3.75458 18.6845 2.46967C16.7279 1.18476 14.4384 0.5001 12.0977 0.500004ZM12.0977 3.07143C11.2817 3.07143 10.2274 3.73315 9.29823 5.51772C8.79594 6.48457 8.38794 7.68972 8.12737 9.05429C9.37148 9.63096 10.7264 9.92932 12.0977 9.92857C13.4689 9.92932 14.8238 9.63096 16.0679 9.05429C15.8074 7.68972 15.3994 6.48457 14.8971 5.51772C13.9662 3.73315 12.9137 3.07143 12.0977 3.07143ZM18.3668 7.54229C18.1222 6.55201 17.7799 5.58844 17.3451 4.66572C18.1062 5.17657 18.7885 5.79543 19.3714 6.5C19.0628 6.87257 18.7279 7.22 18.3668 7.54229ZM16.3679 11.7183C15.0039 12.2363 13.5568 12.5012 12.0977 12.5C10.6391 12.501 9.19261 12.2361 7.82909 11.7183C7.81766 11.9754 7.81194 12.236 7.81194 12.5C7.81194 13.8114 7.94223 15.0526 8.17194 16.1754C9.40966 16.5714 10.7297 16.7857 12.0977 16.7857C13.4657 16.7857 14.7857 16.5714 16.0234 16.1754C16.3189 14.7093 16.4341 13.2124 16.3662 11.7183M18.8228 14.8897C18.9866 13.4039 18.9969 11.9051 18.8537 10.4171C19.5508 9.94172 20.1891 9.40057 20.7685 8.79372C21.2909 10.0185 21.548 11.3401 21.5228 12.6714C20.7278 13.5297 19.8195 14.2754 18.8228 14.888M15.0994 19.0623C13.1164 19.4558 11.0755 19.4558 9.09251 19.0623C9.1588 19.2074 9.22737 19.3469 9.29823 19.4806C10.2239 21.2669 11.2799 21.9286 12.0977 21.9286C12.9154 21.9286 13.9679 21.2669 14.8971 19.4823C14.9657 19.3486 15.0342 19.2091 15.1028 19.064M17.3485 20.3326C17.6899 19.6151 17.9719 18.8709 18.1919 18.1074C18.9759 17.7691 19.7228 17.3714 20.4325 16.9143C19.7025 18.2919 18.6423 19.4669 17.3468 20.3343M6.85023 20.3343C6.50831 19.6169 6.22565 18.8727 6.00509 18.1091C5.22673 17.7736 4.47733 17.3746 3.76452 16.916C4.49451 18.2936 5.55472 19.4687 6.85023 20.336M2.66909 12.6714C3.4628 13.5286 4.37137 14.2743 5.36909 14.888C5.2054 13.4027 5.19506 11.9045 5.33823 10.4171C4.64494 9.94444 4.00314 9.40032 3.42337 8.79372C2.90095 10.0185 2.64388 11.3401 2.66909 12.6714Z" fill="white"/>
</svg>
