<svg width="23" height="25" viewBox="0 0 23 25" fill="none" xmlns="http://www.w3.org/2000/svg">
<path fill-rule="evenodd" clip-rule="evenodd" d="M8.478 1.572C8.53839 1.26985 8.70157 0.997948 8.93978 0.802516C9.178 0.607083 9.47654 0.500186 9.78467 0.5H12.9313C13.2395 0.500186 13.538 0.607083 13.7762 0.802516C14.0144 0.997948 14.1776 1.26985 14.238 1.572L14.6793 3.77467C15.6105 4.12973 16.4789 4.63164 17.2513 5.26133L19.382 4.54133C19.6739 4.44269 19.9909 4.44816 20.2791 4.55682C20.5674 4.66547 20.8092 4.8706 20.9633 5.13733L22.5367 7.86267C22.6909 8.12946 22.7479 8.44142 22.6981 8.74551C22.6482 9.0496 22.4946 9.32705 22.2633 9.53067L20.574 11.0147C20.7326 11.9985 20.7326 13.0015 20.574 13.9853L22.2633 15.4693C22.4945 15.6727 22.6482 15.9498 22.6983 16.2536C22.7483 16.5574 22.6917 16.8692 22.538 17.136L20.9647 19.8627C20.8105 20.1297 20.5685 20.335 20.2799 20.4437C19.9913 20.5524 19.674 20.5577 19.382 20.4587L17.2513 19.7387C16.4789 20.3684 15.6105 20.8703 14.6793 21.2253L14.2393 23.428C14.1789 23.7301 14.0158 24.0021 13.7776 24.1975C13.5393 24.3929 13.2408 24.4998 12.9327 24.5H9.78467C9.47654 24.4998 9.178 24.3929 8.93978 24.1975C8.70157 24.0021 8.53839 23.7301 8.478 23.428L8.03667 21.2253C7.10546 20.8703 6.23713 20.3684 5.46467 19.7387L3.334 20.4587C3.04214 20.5573 2.72513 20.5518 2.43685 20.4432C2.14858 20.3345 1.90682 20.1294 1.75267 19.8627L0.179334 17.1373C0.0251304 16.8705 -0.0319054 16.5586 0.0179258 16.2545C0.067757 15.9504 0.221379 15.673 0.452668 15.4693L2.142 13.984C1.98355 13.0006 1.98355 11.9981 2.142 11.0147L0.452668 9.53067C0.221486 9.3273 0.067815 9.05018 0.0177478 8.74638C-0.0323194 8.44257 0.024303 8.1308 0.178001 7.864L1.75133 5.13733C1.90553 4.87031 2.14752 4.66498 2.43609 4.55631C2.72466 4.44764 3.04197 4.44235 3.334 4.54133L5.46467 5.26133C6.23754 4.63152 7.10633 4.1296 8.038 3.77467L8.478 1.572ZM11.358 16.5C12.4189 16.5 13.4363 16.0786 14.1864 15.3284C14.9366 14.5783 15.358 13.5609 15.358 12.5C15.358 11.4391 14.9366 10.4217 14.1864 9.67157C13.4363 8.92143 12.4189 8.5 11.358 8.5C10.2971 8.5 9.27972 8.92143 8.52957 9.67157C7.77943 10.4217 7.358 11.4391 7.358 12.5C7.358 13.5609 7.77943 14.5783 8.52957 15.3284C9.27972 16.0786 10.2971 16.5 11.358 16.5Z" fill="white"/>
</svg>
