<svg xmlns="http://www.w3.org/2000/svg" width="24" height="25" fill="none" viewBox="0 0 24 25"><path fill="#fff" d="M1.5 0.5C1.10218 0.5 0.720644 0.658035 0.43934 0.93934C0.158035 1.22064 0 1.60218 0 2V23C8.38353e-09 23.3978 0.158035 23.7794 0.43934 24.0607C0.720644 24.342 1.10218 24.5 1.5 24.5C1.89783 24.5 2.27936 24.342 2.56066 24.0607C2.84197 23.7794 3 23.3978 3 23V17.752L3.66 17.586C6.45992 16.8845 9.41848 17.2087 12 18.5C14.58 19.79 17.54 20.114 20.34 19.414L23.3 18.674C23.5002 18.6247 23.6781 18.5096 23.805 18.3471C23.9319 18.1846 24.0006 17.9842 24 17.778V3.62C24 3.48691 23.9697 3.35557 23.9114 3.23596C23.853 3.11634 23.7682 3.01158 23.6633 2.92965C23.5584 2.84772 23.4363 2.79076 23.3061 2.76309C23.1759 2.73543 23.0411 2.73779 22.912 2.77L20.338 3.414C17.5387 4.11503 14.5809 3.7908 12 2.5C9.41797 1.21044 6.46004 0.88627 3.66 1.586L2.98 1.756C2.92217 1.40521 2.74162 1.08637 2.47055 0.856328C2.19949 0.626288 1.85552 0.500005 1.5 0.5Z"/></svg>