<svg width="18" height="25" viewBox="0 0 18 25" fill="none" xmlns="http://www.w3.org/2000/svg">
<path d="M8.8015 0.5C6.86511 0.499565 4.98265 1.13786 3.44588 2.31596C1.90911 3.49406 0.803846 5.14617 0.301396 7.01623C-0.201054 8.8863 -0.072631 10.8699 0.66676 12.6595C1.40615 14.4492 2.71522 15.945 4.39107 16.9151C5.12277 17.3396 5.58034 17.9902 5.60061 18.6462C5.6062 18.8219 5.66951 18.9909 5.78075 19.127C5.89199 19.2631 6.04497 19.3588 6.21604 19.3992C6.59149 19.4874 6.97333 19.5567 7.36158 19.6072C7.70609 19.6509 8.00154 19.3747 8.00154 19.027V14.0555C7.66465 14.0175 7.33074 13.9566 7.00213 13.8731C6.90037 13.8469 6.80476 13.801 6.72077 13.7378C6.63678 13.6747 6.56605 13.5956 6.51262 13.5051C6.45918 13.4147 6.42409 13.3145 6.40935 13.2105C6.39461 13.1065 6.4005 13.0005 6.42669 12.8988C6.45289 12.797 6.49887 12.7014 6.56201 12.6174C6.62515 12.5334 6.70421 12.4627 6.79469 12.4093C6.88517 12.3558 6.98528 12.3208 7.08932 12.306C7.19336 12.2913 7.29928 12.2972 7.40104 12.3234C8.31966 12.5602 9.28333 12.5602 10.202 12.3234C10.3047 12.2937 10.4124 12.285 10.5186 12.2978C10.6248 12.3105 10.7274 12.3444 10.8203 12.3975C10.9132 12.4505 10.9945 12.5217 11.0593 12.6067C11.1242 12.6917 11.1714 12.7889 11.1981 12.8925C11.2248 12.9961 11.2304 13.104 11.2147 13.2098C11.1989 13.3156 11.1621 13.4171 11.1065 13.5085C11.0508 13.5998 10.9773 13.679 10.8905 13.7415C10.8037 13.8039 10.7052 13.8483 10.6009 13.8721C10.2723 13.9558 9.93837 14.0171 9.60145 14.0555V19.0259C9.60019 19.1077 9.61636 19.1888 9.64888 19.2639C9.68141 19.3389 9.72955 19.4062 9.79009 19.4612C9.85064 19.5162 9.9222 19.5576 10 19.5828C10.0778 19.608 10.1601 19.6163 10.2414 19.6072C10.6297 19.5574 11.0115 19.4881 11.387 19.3992C11.558 19.3588 11.711 19.2631 11.8222 19.127C11.9335 18.9909 11.9968 18.8219 12.0024 18.6462C12.0237 17.9902 12.4802 17.3396 13.2119 16.9151C14.8878 15.945 16.1968 14.4492 16.9362 12.6595C17.6756 10.8699 17.804 8.8863 17.3016 7.01623C16.7991 5.14617 15.6939 3.49406 14.1571 2.31596C12.6203 1.13786 10.7379 0.499565 8.8015 0.5Z" fill="white"/>
<path fill-rule="evenodd" clip-rule="evenodd" d="M5.61546 20.926C5.63505 20.8227 5.67478 20.7244 5.7324 20.6365C5.79001 20.5486 5.86438 20.4729 5.95124 20.4138C6.03811 20.3547 6.13578 20.3132 6.23867 20.2919C6.34155 20.2705 6.44764 20.2696 6.55088 20.2892C8.03793 20.5719 9.56491 20.5719 11.052 20.2892C11.1565 20.2662 11.2645 20.2644 11.3697 20.2839C11.4749 20.3034 11.5751 20.3438 11.6644 20.4027C11.7537 20.4616 11.8303 20.5379 11.8897 20.6269C11.949 20.7159 11.9899 20.816 12.0098 20.9211C12.0298 21.0262 12.0285 21.1342 12.006 21.2388C11.9835 21.3434 11.9402 21.4424 11.8787 21.53C11.8173 21.6176 11.7389 21.692 11.6481 21.7487C11.5574 21.8054 11.4563 21.8434 11.3506 21.8603C9.66623 22.1805 7.93661 22.1805 6.25223 21.8603C6.04394 21.8208 5.85988 21.7001 5.74048 21.5249C5.62108 21.3497 5.57612 21.1343 5.61546 20.926ZM6.40582 23.5328C6.41673 23.4283 6.44813 23.327 6.4982 23.2346C6.54828 23.1422 6.61607 23.0606 6.69768 22.9945C6.77929 22.9283 6.87314 22.8789 6.97386 22.849C7.07459 22.8191 7.18021 22.8093 7.2847 22.8203C8.29311 22.9255 9.30973 22.9255 10.3181 22.8203C10.4226 22.8094 10.5282 22.8191 10.629 22.849C10.7297 22.8789 10.8235 22.9283 10.9051 22.9945C10.9868 23.0607 11.0545 23.1422 11.1046 23.2346C11.1547 23.327 11.1861 23.4283 11.197 23.5328C11.2079 23.6373 11.1982 23.7429 11.1683 23.8436C11.1384 23.9443 11.089 24.0382 11.0228 24.1198C10.9566 24.2014 10.875 24.2692 10.7827 24.3193C10.6903 24.3693 10.589 24.4007 10.4845 24.4117C9.36558 24.53 8.23726 24.53 7.11831 24.4117C7.01382 24.4007 6.9125 24.3693 6.82013 24.3193C6.72777 24.2692 6.64618 24.2014 6.58002 24.1198C6.51386 24.0382 6.46442 23.9443 6.43453 23.8436C6.40464 23.7429 6.39488 23.6373 6.40582 23.5328Z" fill="white"/>
</svg>
